<?xml version="1.0" encoding="UTF-8"?><svg xmlns="http://www.w3.org/2000/svg" xmlns:xlink="http://www.w3.org/1999/xlink" viewBox="0 0 1560 400"><defs><style>.cls-1{fill:url(#New_Gradient_Swatch);}.cls-2{fill:#00a99d;}.cls-3{fill:#e6e6e6;}.cls-4{fill:#fff;}.cls-5{fill:#1a1a1a;}.cls-6{opacity:.2;}.cls-7{opacity:.25;}</style><linearGradient id="New_Gradient_Swatch" x1="-16.49" y1="200" x2="1576.49" y2="200" gradientUnits="userSpaceOnUse"><stop offset="0" stop-color="#9271fb"/><stop offset="1" stop-color="#5450ff"/></linearGradient></defs><g id="BG"><rect class="cls-1" x="-16.49" y="-12.83" width="1592.98" height="425.66"/></g><g id="Layer_2"><g class="cls-7"><path d="m509.3,263.97l71.82,45.31c3.72,2.35,8.22,3.06,12.5,2.08,17.84-4.11,34.58-2.49,44.81-.65,6.4,1.15,12.87-1.64,16.47-7.06l21-31.61c2.55-3.83,3.36-8.56,2.24-13.03l-29.44-95.11-15.98-28.29h-69.51l-35.68,46.8-18.23,81.55Z"/><path d="m632.6,263.97l71.82,45.31c3.72,2.35,8.22,3.06,12.5,2.08,17.84-4.11,34.58-2.49,44.81-.65,6.4,1.15,12.87-1.64,16.47-7.06l21-31.61c2.55-3.83,3.36-8.56,2.24-13.03l-29.44-95.11-15.98-28.29h-69.51l-35.68,46.8-18.23,81.55Z"/><path d="m755.9,263.97l71.82,45.31c3.72,2.35,8.22,3.06,12.5,2.08,17.84-4.11,34.58-2.49,44.81-.65,6.4,1.15,12.87-1.64,16.47-7.06l21-31.61c2.55-3.83,3.36-8.56,2.24-13.03l-29.44-95.11-15.98-28.29h-69.51l-35.68,46.8-18.23,81.55Z"/><path d="m879.2,263.97l71.82,45.31c3.72,2.35,8.22,3.06,12.5,2.08,17.84-4.11,34.58-2.49,44.81-.65,6.4,1.15,12.87-1.64,16.47-7.06l21-31.61c2.55-3.83,3.36-8.56,2.24-13.03l-15.01-59.02-30.41-64.37h-69.51l-35.68,46.8-18.23,81.55Z"/></g><path class="cls-3" d="m637.2,136.51c-1.79-4.28-6.1-6.97-10.72-6.67-13.65.86-34.99,1.53-59.12-.19-.26-.02-.52-.03-.77-.03-3.4,0-6.59,1.6-8.67,4.36l-33.35,44.46c-2.33,3.11-3.92,6.78-4.58,10.61l-12.16,71.07c-.2,1.15-.11,2.35.36,3.42.97,2.18,3.05,2.48,5.31,2.48h99.83c3.74,0,7.24-1.86,9.34-4.96l39.46-58.35c1.09-1.62,1.3-3.67.54-5.47l-25.48-60.74Z"/><path class="cls-4" d="m632.98,131.82c-1.98-1.41-4.42-2.15-6.96-1.98-13.65.86-34.99,1.53-59.12-.19-.26-.02-.52-.03-.77-.03-3.4,0-6.59,1.6-8.67,4.36l-30.46,40.62s-2.2,6.08,10.61,7.26c15.54,1.43,37.05,2.09,54.99,0,4.96-.58,8.52-2.1,14.69-10.08,6.17-7.98,24.97-36.16,24.97-36.16,0,0,1.06-1.79.73-3.8Z"/><path class="cls-6" d="m648.28,178.46l4.17-5.56-3.76-8.97-7.13,9.5c-3.12,4.16-5.24,9.08-6.14,14.21l-12.19,70.2c-.16.93-.22,1.87-.19,2.8l11.08-16.41,9.57-55.15c.66-3.83,2.25-7.5,4.58-10.61Z"/><path class="cls-2" d="m740.08,266.03c.26,0,.52-.02.78-.06-.26.03-.52.06-.78.06h0Z"/><path class="cls-3" d="m760.5,136.51c-1.79-4.28-6.1-6.97-10.72-6.67-13.65.86-34.99,1.53-59.12-.19-.26-.02-.52-.03-.77-.03-3.4,0-6.59,1.6-8.67,4.36l-33.35,44.46c-2.33,3.11-3.92,6.78-4.58,10.61l-12.16,71.07c-.2,1.15-.11,2.35.36,3.42.97,2.18,3.05,2.48,5.31,2.48h99.83c3.74,0,7.24-1.86,9.34-4.96l39.46-58.35c1.09-1.62,1.3-3.67.54-5.47l-25.48-60.74Z"/><path class="cls-4" d="m756.28,131.82c-1.98-1.41-4.42-2.15-6.96-1.98-13.65.86-34.99,1.53-59.12-.19-.26-.02-.52-.03-.77-.03-3.4,0-6.59,1.6-8.67,4.36l-30.46,40.62s-2.2,6.08,10.61,7.26c15.54,1.43,37.05,2.09,54.99,0,4.96-.58,8.52-2.1,14.69-10.08,6.17-7.98,24.97-36.16,24.97-36.16,0,0,1.06-1.79.73-3.8Z"/><path class="cls-6" d="m771.59,178.46l4.17-5.56-3.76-8.97-7.13,9.5c-3.12,4.16-5.24,9.08-6.14,14.21l-12.19,70.2c-.16.93-.22,1.87-.19,2.8l11.08-16.41,9.57-55.15c.66-3.83,2.25-7.5,4.58-10.61Z"/><path class="cls-2" d="m863.38,266.03c.26,0,.52-.02.78-.06-.26.03-.52.06-.78.06h0Z"/><path class="cls-3" d="m883.8,136.51c-1.79-4.28-6.1-6.97-10.72-6.67-13.65.86-34.99,1.53-59.12-.19-.26-.02-.52-.03-.77-.03-3.4,0-6.59,1.6-8.67,4.36l-33.35,44.46c-2.33,3.11-3.92,6.78-4.58,10.61l-12.16,71.07c-.2,1.15-.11,2.35.36,3.42.97,2.18,3.05,2.48,5.31,2.48h99.83c3.74,0,7.24-1.86,9.34-4.96l39.46-58.35c1.09-1.62,1.3-3.67.54-5.47l-25.48-60.74Z"/><path class="cls-4" d="m879.59,131.82c-1.98-1.41-4.42-2.15-6.96-1.98-13.65.86-34.99,1.53-59.12-.19-.26-.02-.52-.03-.77-.03-3.4,0-6.59,1.6-8.67,4.36l-30.46,40.62s-2.2,6.08,10.61,7.26c15.54,1.43,37.05,2.09,54.99,0,4.96-.58,8.52-2.1,14.69-10.08,6.17-7.98,24.97-36.16,24.97-36.16,0,0,1.06-1.79.73-3.8Z"/><path class="cls-6" d="m894.89,178.46l4.17-5.56-3.76-8.97-7.13,9.5c-3.12,4.16-5.24,9.08-6.14,14.21l-12.19,70.2c-.16.93-.22,1.87-.19,2.8l11.08-16.41,9.57-55.15c.66-3.83,2.25-7.5,4.58-10.61Z"/><path class="cls-2" d="m986.68,266.03c.26,0,.52-.02.78-.06-.26.03-.52.06-.78.06h0Z"/><path class="cls-3" d="m1007.1,136.51c-1.79-4.28-6.1-6.97-10.72-6.67-13.65.86-34.99,1.53-59.12-.19-.26-.02-.52-.03-.77-.03-3.4,0-6.59,1.6-8.67,4.36l-33.35,44.46c-2.33,3.11-3.92,6.78-4.58,10.61l-12.16,71.07c-.2,1.15-.11,2.35.36,3.42.97,2.18,3.05,2.48,5.31,2.48h99.83c3.74,0,7.24-1.86,9.34-4.96l39.46-58.35c1.09-1.62,1.3-3.67.54-5.47l-25.48-60.74Z"/><path class="cls-4" d="m1002.89,131.82c-1.98-1.41-4.42-2.15-6.96-1.98-13.65.86-34.99,1.53-59.12-.19-.26-.02-.52-.03-.77-.03-3.4,0-6.59,1.6-8.67,4.36l-30.46,40.62s-2.2,6.08,10.61,7.26c15.54,1.43,37.05,2.09,54.99,0,4.96-.58,8.52-2.1,14.69-10.08,6.17-7.98,24.97-36.16,24.97-36.16,0,0,1.06-1.79.73-3.8Z"/><path class="cls-2" d="m1109.99,266.03c.26,0,.52-.02.78-.06-.26.03-.52.06-.78.06h0Z"/><path class="cls-5" d="m715.55,145.97c.16-.37.29-.73.4-1.09.11-.36.19-.71.24-1.05.06-.35.09-.68.09-1.01,0-.33-.03-.64-.09-.95-.06-.3-.14-.6-.26-.89-.11-.29-.26-.56-.43-.82-.18-.27-.39-.52-.63-.77-.24-.24-.51-.47-.82-.69-.3-.22-.64-.42-1.01-.62-.36-.19-.76-.37-1.19-.54,0,0,0,0,0,0-.44-.17-.91-.32-1.41-.46-.5-.14-1.04-.25-1.6-.36-.57-.1-1.16-.19-1.78-.26-.62-.07-1.27-.12-1.94-.16,0,0,0,0-.01,0,0,0,0,0-.01,0s0,0-.01,0c0,0,0,0-.01,0,0,0,0,0-.01,0,0,0,0,0-.01,0,0,0,0,0-.01,0,0,0,0,0-.01,0-.65-.04-1.31-.06-1.97-.06-.66,0-1.31.02-1.97.05-.66.03-1.31.09-1.96.16-.65.07-1.3.16-1.93.27-.62.11-1.23.23-1.83.36-.6.13-1.19.28-1.77.44-.58.16-1.14.34-1.7.53-.56.19-1.1.39-1.62.61-.52.22-1.03.44-1.53.68-.5.23-.98.49-1.44.75-.47.26-.92.53-1.36.81-.44.28-.87.58-1.29.88-.41.31-.82.62-1.2.94-.38.32-.75.65-1.1.99-.35.34-.69.69-1.01,1.04-.32.36-.63.72-.92,1.09t0,0c-.29.37-.55.74-.79,1.11-.24.37-.46.73-.66,1.1-.2.37-.37.73-.52,1.1-.15.36-.27.73-.38,1.09-.1.36-.17.72-.22,1.08-.04.36-.06.71-.05,1.05.01.35.06.68.13,1.02.07.33.18.66.31.99.14.33.31.64.51.95.21.31.45.6.72.89.28.28.59.56.94.82.35.26.73.51,1.15.74.43.24.9.46,1.4.66.51.2,1.05.38,1.63.53.58.15,1.19.29,1.83.39.64.11,1.32.19,2.02.26,0,0,.01,0,.02,0,0,0,0,0,0,0,0,0,0,0,.01,0,0,0,0,0,.01,0,0,0,0,0,.01,0,0,0,0,0,.01,0,0,0,0,0,.01,0,0,0,0,0,0,0,0,0,0,0,0,0,.7.06,1.41.1,2.13.11.71,0,1.42,0,2.14-.05.71-.04,1.43-.11,2.13-.21.71-.1,1.41-.22,2.11-.36.67-.14,1.34-.31,1.99-.48.65-.18,1.29-.38,1.91-.6.62-.22,1.23-.45,1.83-.7.59-.25,1.17-.51,1.73-.79.55-.28,1.08-.56,1.6-.86.51-.3,1.01-.61,1.5-.93.48-.32.95-.65,1.39-.99.45-.34.88-.69,1.29-1.04.41-.35.8-.71,1.17-1.08.37-.36.72-.73,1.06-1.11.33-.37.65-.75.94-1.13.29-.38.57-.77.83-1.16t0,0c.26-.39.49-.78.7-1.16.21-.38.39-.75.55-1.12Zm-7.38-1.37c-.05.25-.12.51-.2.77-.09.27-.2.55-.33.83-.13.29-.29.59-.47.9-.18.31-.38.63-.61.96-.19.27-.38.55-.6.81-.21.27-.43.53-.67.8-.23.26-.48.52-.73.78-.25.26-.52.51-.8.76-.27.25-.56.48-.85.7-.29.22-.59.44-.89.65-.3.21-.61.4-.93.59-.32.19-.64.37-.97.53-.32.17-.65.32-.98.46-.33.14-.66.27-1,.4-.34.12-.69.23-1.04.33-.35.1-.71.19-1.08.28-.33.07-.68.14-1.02.18-.35.05-.7.09-1.07.11-.37.02-.75.03-1.14.03-.39,0-.8-.02-1.23-.06-.44-.04-.84-.08-1.2-.14-.37-.06-.7-.13-1-.2-.3-.08-.58-.16-.83-.26-.25-.1-.47-.2-.67-.32-.22-.13-.42-.26-.6-.4-.18-.14-.34-.29-.49-.44-.14-.16-.27-.32-.37-.49-.11-.17-.19-.36-.26-.55-.07-.2-.12-.4-.16-.61-.03-.21-.05-.43-.05-.65,0-.22.02-.46.06-.7.04-.24.1-.48.18-.74.08-.26.18-.52.29-.78.11-.26.24-.53.38-.79.14-.26.3-.53.47-.8.17-.27.36-.54.56-.81.2-.27.41-.53.63-.78.22-.26.45-.51.69-.75.24-.25.49-.49.75-.72.26-.24.53-.47.81-.7.27-.22.55-.43.84-.64.29-.2.58-.4.88-.58.3-.18.6-.36.91-.53.31-.17.62-.32.94-.47.31-.14.63-.28.94-.4.32-.13.64-.24.97-.34.33-.11.66-.2,1-.29.34-.09.69-.17,1.04-.24.32-.06.64-.12.97-.16.33-.04.67-.08,1.01-.1.35-.02.7-.03,1.07-.03.37,0,.76.01,1.16.04.36.02.69.05,1.01.09.32.04.62.08.89.14.28.05.54.12.79.18.25.07.48.15.7.23.22.09.42.18.61.28.19.1.37.21.53.33.16.12.31.25.44.39.13.14.25.29.35.46.1.16.19.34.25.52.07.18.12.38.15.58.03.2.05.42.04.65,0,.22-.03.46-.08.71Z"/><path class="cls-5" d="m816.6,136.33c-.14-.01-.29-.02-.45-.02-.15,0-.31,0-.46.02-.16.01-.3.03-.46.06-.15.03-.3.06-.44.1-.14.04-.28.08-.4.13-.13.05-.24.1-.35.16-.11.06-.2.12-.28.19-.08.07-.15.13-.21.21-4.96,6.42-9.92,12.89-14.86,19.41-.06.08-.1.16-.14.25-.03.08-.04.17-.04.25,0,.08.02.16.05.24.03.08.08.16.15.23.06.07.14.14.24.2.09.06.2.12.32.17.12.05.24.09.38.13.14.04.28.07.44.09,4.34.58,8.69,1.07,13.05,1.45.43.04.86.07,1.3.09.43.02.87.03,1.3.03.44,0,.87,0,1.3-.02.44-.02.87-.04,1.3-.08.46-.04.91-.09,1.36-.15.45-.06.9-.14,1.34-.23.44-.09.88-.19,1.3-.31.43-.11.84-.24,1.25-.38.42-.14.83-.3,1.22-.46.39-.17.77-.34,1.14-.53.36-.19.71-.38,1.05-.59.34-.21.66-.42.97-.64.32-.23.62-.47.91-.72.29-.25.56-.5.81-.77.25-.27.49-.54.72-.82.22-.28.43-.57.63-.86h0c.26-.39.47-.77.64-1.14.16-.37.28-.72.35-1.07.07-.34.08-.68.04-1-.04-.32-.13-.63-.28-.92-.06-.12-.13-.25-.22-.36-.09-.12-.18-.23-.29-.34-.11-.11-.23-.21-.36-.32-.13-.1-.27-.2-.43-.29.08-.03.15-.06.23-.09.07-.03.15-.06.22-.09.07-.03.15-.06.22-.09.07-.03.15-.07.22-.1.25-.11.48-.23.7-.35.23-.12.44-.25.66-.38.21-.13.42-.26.62-.4.2-.14.39-.28.58-.43.2-.16.39-.32.57-.49.18-.17.35-.34.52-.51.16-.17.32-.35.46-.54.15-.18.28-.37.41-.56.14-.2.26-.41.37-.61.11-.2.2-.4.27-.59.07-.19.14-.39.18-.57.04-.19.07-.37.08-.56,0,0,0,0,0,0,0-.19,0-.37-.04-.56-.04-.18-.1-.36-.18-.53-.08-.17-.19-.33-.32-.49-.13-.16-.28-.31-.45-.46-.18-.15-.38-.29-.6-.42-.22-.13-.47-.26-.74-.37-.27-.12-.55-.23-.86-.32-.31-.1-.63-.19-.97-.28-.35-.09-.72-.17-1.11-.24-.39-.07-.79-.13-1.22-.19-.43-.06-.87-.1-1.33-.15-.46-.04-.93-.08-1.43-.11-2.96-.19-5.93-.42-8.89-.69-.69-.06-1.37-.13-2.06-.2Zm7.26,15.11c-.01.11-.05.23-.1.36-.05.13-.12.28-.2.45-.09.16-.2.34-.33.53-.14.2-.28.39-.42.56-.14.17-.29.33-.43.48-.14.14-.28.27-.42.39-.14.11-.27.21-.39.29-.13.09-.26.16-.38.23-.12.07-.25.13-.36.18-.12.05-.24.1-.36.13-.12.04-.24.07-.36.1-.13.03-.28.06-.44.09-.16.03-.34.05-.53.07-.19.02-.39.04-.61.05-.22.01-.46.02-.71.02-.28,0-.58,0-.89,0-.32,0-.64-.02-.98-.04-.34-.02-.69-.04-1.06-.06-.37-.03-.75-.06-1.14-.09-1.76-.16-3.52-.34-5.28-.53,1.38-1.89,2.77-3.77,4.16-5.65,1.85.19,3.71.36,5.56.51.32.03.63.05.93.08.3.03.58.06.86.09.27.03.54.07.79.1.25.04.49.07.72.11.21.04.4.07.57.11.17.04.33.08.48.13.15.04.28.09.4.14.12.05.23.1.33.15.08.04.16.09.22.14.07.05.12.1.17.16.05.06.09.12.12.2.03.07.06.15.07.25.01.08.02.17,0,.28Zm.55-10.53c.33.03.64.06.93.09.29.03.56.07.81.1.25.03.47.07.68.11.2.04.38.07.54.11.16.04.31.08.43.12.12.04.23.08.33.12.09.04.17.08.23.11,0,0,0,0,0,0,.06.04.12.08.16.12.05.04.08.08.12.12.03.04.05.09.08.14.02.05.03.11.04.17,0,.06,0,.14-.02.22-.02.08-.04.17-.08.27-.04.1-.09.2-.15.31-.06.11-.14.23-.23.36-.09.13-.18.25-.28.36-.1.11-.19.22-.29.33-.1.1-.2.2-.31.29-.1.09-.21.18-.32.26-.1.07-.2.13-.3.2-.1.06-.2.12-.3.17-.1.05-.21.1-.32.14-.11.04-.22.09-.34.12,0,0,0,0,0,0-.11.04-.23.07-.36.1-.13.03-.27.06-.43.09-.16.03-.32.06-.51.08-.18.02-.38.04-.6.06,0,0,0,0,0,0-.2.02-.43.03-.67.04-.24,0-.5.01-.78,0-.28,0-.57,0-.88-.02-.31-.01-.64-.03-.98-.06-1.71-.13-3.41-.28-5.12-.44,1.14-1.54,2.29-3.09,3.43-4.63,1.47.13,2.95.25,4.42.36.37.03.72.06,1.05.09Z"/><path class="cls-5" d="m962.85,145.97c.16-.37.29-.73.4-1.09.11-.36.19-.71.24-1.05.06-.35.09-.68.09-1.01,0-.33-.03-.64-.09-.95-.06-.3-.14-.6-.26-.89-.11-.29-.26-.56-.43-.82-.18-.27-.39-.52-.63-.77-.24-.24-.51-.47-.82-.69-.3-.22-.64-.42-1.01-.62-.36-.19-.76-.37-1.19-.54,0,0,0,0,0,0-.44-.17-.91-.32-1.41-.46-.5-.14-1.04-.25-1.6-.36-.57-.1-1.16-.19-1.78-.26-.62-.07-1.27-.12-1.94-.16,0,0,0,0-.01,0,0,0,0,0-.01,0s0,0-.01,0c0,0,0,0-.01,0,0,0,0,0-.01,0,0,0,0,0-.01,0,0,0,0,0-.01,0,0,0,0,0-.01,0-.65-.04-1.31-.06-1.97-.06-.66,0-1.31.02-1.97.05-.66.03-1.31.09-1.96.16-.65.07-1.3.16-1.93.27-.62.11-1.23.23-1.83.36-.6.13-1.19.28-1.77.44-.58.16-1.14.34-1.7.53-.56.19-1.1.39-1.62.61-.52.22-1.03.44-1.53.68-.5.23-.98.49-1.44.75-.47.26-.92.53-1.36.81-.44.28-.87.58-1.29.88-.41.31-.82.62-1.2.94-.38.32-.75.65-1.1.99-.35.34-.69.69-1.01,1.04-.32.36-.63.72-.92,1.09t0,0c-.29.37-.55.74-.79,1.11-.24.37-.46.73-.66,1.1-.2.37-.37.73-.52,1.1-.15.36-.27.73-.38,1.09-.1.36-.17.72-.22,1.08-.04.36-.06.71-.05,1.05.01.35.06.68.13,1.02.07.33.18.66.31.99.14.33.31.64.51.95.21.31.45.6.72.89.28.28.59.56.94.82.35.26.73.51,1.15.74.43.24.9.46,1.4.66.51.2,1.05.38,1.63.53.58.15,1.19.29,1.83.39.64.11,1.32.19,2.02.26,0,0,.01,0,.02,0,0,0,0,0,0,0,0,0,0,0,.01,0,0,0,0,0,.01,0,0,0,0,0,.01,0,0,0,0,0,.01,0,0,0,0,0,.01,0,0,0,0,0,0,0,0,0,0,0,0,0,.7.06,1.41.1,2.13.11.71,0,1.42,0,2.14-.05.71-.04,1.43-.11,2.13-.21.71-.1,1.41-.22,2.11-.36.67-.14,1.34-.31,1.99-.48.65-.18,1.29-.38,1.91-.6.62-.22,1.23-.45,1.83-.7.59-.25,1.17-.51,1.73-.79.55-.28,1.08-.56,1.6-.86.51-.3,1.01-.61,1.5-.93.48-.32.95-.65,1.39-.99.45-.34.88-.69,1.29-1.04.41-.35.8-.71,1.17-1.08.37-.36.72-.73,1.06-1.11.33-.37.65-.75.94-1.13.29-.38.57-.77.83-1.16t0,0c.26-.39.49-.78.7-1.16.21-.38.39-.75.55-1.12Zm-7.38-1.37c-.05.25-.12.51-.2.77-.09.27-.2.55-.33.83-.13.29-.29.59-.47.9-.18.31-.38.63-.61.96-.19.27-.38.55-.6.81-.21.27-.43.53-.67.8-.23.26-.48.52-.73.78-.25.26-.52.51-.8.76-.27.25-.56.48-.85.7-.29.22-.59.44-.89.65-.3.21-.61.4-.93.59-.32.19-.64.37-.97.53-.32.17-.65.32-.98.46-.33.14-.66.27-1,.4-.34.12-.69.23-1.04.33-.35.1-.71.19-1.08.28-.33.07-.68.14-1.02.18-.35.05-.7.09-1.07.11-.37.02-.75.03-1.14.03-.39,0-.8-.02-1.23-.06-.44-.04-.84-.08-1.2-.14-.37-.06-.7-.13-1-.2-.3-.08-.58-.16-.83-.26-.25-.1-.47-.2-.67-.32-.22-.13-.42-.26-.6-.4-.18-.14-.34-.29-.49-.44-.14-.16-.27-.32-.37-.49-.11-.17-.19-.36-.26-.55-.07-.2-.12-.4-.16-.61-.03-.21-.05-.43-.05-.65,0-.22.02-.46.06-.7.04-.24.1-.48.18-.74.08-.26.18-.52.29-.78.11-.26.24-.53.38-.79.14-.26.3-.53.47-.8.17-.27.36-.54.56-.81.2-.27.41-.53.63-.78.22-.26.45-.51.69-.75.24-.25.49-.49.75-.72.26-.24.53-.47.81-.7.27-.22.55-.43.84-.64.29-.2.58-.4.88-.58.3-.18.6-.36.91-.53.31-.17.62-.32.94-.47.31-.14.63-.28.94-.4.32-.13.64-.24.97-.34.33-.11.66-.2,1-.29.34-.09.69-.17,1.04-.24.32-.06.64-.12.97-.16.33-.04.67-.08,1.01-.1.35-.02.7-.03,1.07-.03.37,0,.76.01,1.16.04.36.02.69.05,1.01.09.32.04.62.08.89.14.28.05.54.12.79.18.25.07.48.15.7.23.22.09.42.18.61.28.19.1.37.21.53.33.16.12.31.25.44.39.13.14.25.29.35.46.1.16.19.34.25.52.07.18.12.38.15.58.03.2.05.42.04.65,0,.22-.03.46-.08.71Z"/><path class="cls-5" d="m570.47,136.75c-.15,0-.31,0-.46.02-.15.01-.31.03-.46.06-.15.03-.3.06-.44.1-.14.04-.27.08-.4.13-.13.05-.24.1-.35.16-.1.06-.2.12-.28.19-.08.07-.15.13-.21.21-4.96,6.41-9.91,12.87-14.85,19.38-.13.17-.18.33-.18.5,0,.16.07.32.19.46.12.14.3.27.52.37.23.1.5.18.82.23.99.14,1.98.28,2.97.41,0,0,0,0,.01,0,0,0,0,0,.01,0,0,0,0,0,.01,0,0,0,0,0,.01,0,.15.02.31.03.47.03.16,0,.32,0,.48-.02.16-.01.32-.04.48-.07.16-.03.32-.07.47-.11.16-.05.3-.1.44-.16.14-.06.26-.12.38-.19.12-.07.22-.14.31-.22.09-.08.16-.16.23-.24,1.98-2.71,3.96-5.4,5.94-8.09,2.34.23,4.67.44,7.01.61.15.01.31.02.45.04.15.01.29.03.44.04.14.02.28.03.42.05.14.02.27.04.4.06,0,0,0,0,0,0,.1.02.19.03.28.05.09.02.17.04.24.06.07.02.14.04.21.07.06.02.13.05.18.08.04.02.08.04.11.06.04.02.07.05.1.08.03.03.06.07.09.11.03.04.06.09.08.14.02.04.04.09.05.14s.02.13.01.2c0,.08-.01.16-.03.26-.02.1-.05.2-.1.31,0,0,0,0,0,0-.03.08-.08.18-.12.28-.05.1-.11.21-.17.33-.06.12-.13.24-.21.38-.08.13-.16.28-.26.42-.1.16-.2.32-.3.49-.1.16-.2.33-.3.5-.1.17-.2.34-.3.51-.1.17-.2.34-.3.51-.1.18-.2.35-.3.53-.1.17-.19.35-.28.52-.09.17-.18.34-.26.51-.09.17-.17.34-.25.5-.08.18-.16.36-.22.53-.06.17-.11.34-.15.5-.03.16-.06.32-.06.48,0,.15,0,.31.04.46.03.12.09.22.18.32.09.1.21.19.35.26.14.07.31.14.51.18.19.05.41.08.64.09,0,0,0,0,0,0,0,0,0,0,0,0,0,0,0,0,0,0,0,0,0,0,0,0,1.14.06,2.29.11,3.43.16.33.01.67-.01,1.01-.06.33-.05.65-.14.94-.25.29-.11.56-.24.78-.39.22-.15.4-.31.51-.49.04-.06.08-.12.12-.18.06-.09.1-.17.12-.25.02-.08.03-.17.02-.24-.01-.08-.04-.16-.08-.23-.04-.07-.1-.14-.17-.2,0,0,0-.02,0-.03,0,0,0,0,0,0,0,0,0-.03,0-.06,0-.03,0-.07.01-.11,0-.04.02-.1.03-.15.02-.06.03-.12.06-.19,0,0,0,0,0,0,.02-.07.06-.15.09-.23.03-.09.08-.18.12-.28.05-.1.1-.21.15-.32.06-.11.12-.24.18-.36.07-.13.14-.26.22-.4.08-.14.17-.3.26-.46.09-.16.2-.33.31-.51.11-.18.23-.37.35-.56,0,0,0,0,0-.01.09-.14.17-.28.26-.43.08-.14.17-.29.25-.43.08-.14.17-.29.25-.44.08-.15.16-.29.24-.44.09-.16.17-.33.24-.49.07-.16.13-.32.19-.48.05-.16.1-.31.14-.47.04-.15.07-.31.09-.46.02-.16.04-.32.03-.47,0-.15-.02-.31-.05-.46-.03-.15-.07-.29-.13-.44-.06-.14-.13-.28-.22-.42,0-.02-.02-.03-.03-.05-.01-.02-.02-.03-.03-.05,0-.02-.02-.03-.04-.05-.01-.02-.03-.03-.04-.05.28-.09.56-.19.83-.29.27-.1.53-.2.79-.31.25-.11.5-.22.74-.33.24-.12.47-.23.69-.35.44-.24.84-.49,1.22-.76.37-.27.72-.55,1.04-.84.32-.29.61-.6.88-.91.27-.32.52-.64.75-.98.17-.25.32-.49.44-.73.13-.24.23-.47.32-.7.08-.23.15-.45.19-.66.04-.22.06-.42.05-.62,0-.2-.04-.4-.1-.59-.06-.19-.14-.37-.25-.55-.11-.17-.25-.34-.41-.5-.16-.16-.35-.31-.57-.45-.21-.13-.44-.26-.68-.38-.25-.12-.51-.23-.8-.33-.28-.1-.59-.2-.91-.29-.32-.09-.65-.17-1-.24-.35-.07-.72-.14-1.1-.2-.38-.06-.78-.11-1.18-.16-.41-.05-.83-.09-1.27-.13-.44-.04-.89-.07-1.35-.1-3.8-.22-7.6-.51-11.39-.88-.16-.02-.32-.03-.48-.05-.15-.01-.3-.02-.45-.02Zm10.33,4.71c.19.02.38.04.56.06.18.02.36.05.53.07.17.03.34.05.51.09.14.03.27.05.39.09.12.03.24.06.34.1.11.04.21.07.3.12.09.04.18.08.26.13.07.04.13.08.19.13.06.05.11.1.15.16.05.06.08.12.11.19.03.07.06.15.07.23.01.07.02.15,0,.24,0,.09-.03.19-.07.3-.04.11-.09.23-.16.36-.07.13-.16.27-.26.42-.1.14-.2.28-.31.4-.11.13-.22.24-.34.35-.11.11-.23.21-.35.3-.12.09-.24.17-.35.25-.14.08-.27.16-.41.24-.14.07-.27.14-.41.2-.13.06-.27.12-.41.17-.14.05-.27.1-.41.14-.15.04-.29.08-.44.12-.15.04-.3.07-.46.1-.16.03-.32.05-.48.08-.17.02-.34.04-.52.06-.19.02-.39.03-.59.04-.2,0-.4.01-.61.01-.21,0-.42,0-.64,0-.22,0-.44-.02-.66-.03-2.29-.16-4.58-.35-6.86-.56,1.26-1.7,2.51-3.39,3.77-5.08,2.32.2,4.63.37,6.95.52.2.01.4.03.59.04Z"/></g></svg>