<svg xmlns="http://www.w3.org/2000/svg" width="1010" height="252" fill="none"><path fill="#14141A" d="M0 0h1010v252H0z"/><path fill="#fff" d="M859.685 236.066c24.109 0 43.654-19.514 43.654-43.586s-19.545-43.586-43.654-43.586-43.655 19.514-43.655 43.586 19.545 43.586 43.655 43.586"/><path fill="#5856EB" d="M681.153 16.696v.034a6.1 6.1 0 0 0-2.977-.795h-14.618c-60.871 0-110.238 49.29-110.238 110.066 0 60.775 49.367 110.065 110.238 110.065h112.265l3.752-164.93z"/><path fill="#362C89" d="M782.173 101.714V75.332a4.65 4.65 0 0 0-2.876-4.297 4.7 4.7 0 0 0-1.783-.354h-1.437a82.93 82.93 0 0 0-49.877 16.7 82.7 82.7 0 0 0-29.748 43.319l-30.814 10.418 42.925 60.143h.024a82.66 82.66 0 0 0 29.514 25.602 82.8 82.8 0 0 0 37.995 9.203h1.438a4.66 4.66 0 0 0 3.291-1.364 4.65 4.65 0 0 0 1.363-3.287v-55.272z"/><path fill="#5856EB" d="M949.667 236.066c24.109 0 43.654-19.514 43.654-43.586s-19.545-43.586-43.654-43.586-43.654 19.514-43.654 43.586 19.544 43.586 43.654 43.586"/><path fill="#fff" d="M640.552 192.48a43.53 43.53 0 0 0-8.419-25.709 43.65 43.65 0 0 0-21.991-15.797 43.7 43.7 0 0 0-27.09.202 43.64 43.64 0 0 0-21.752 16.123 110.4 110.4 0 0 0 24.275 36.523 110.6 110.6 0 0 0 36.596 24.214 43.6 43.6 0 0 0 13.522-15.545 43.5 43.5 0 0 0 4.859-20.011M949.667 72.447c6.131 0 11.1-4.963 11.1-11.083 0-6.121-4.969-11.084-11.1-11.084s-11.1 4.962-11.1 11.084c0 6.12 4.969 11.083 11.1 11.083"/><path fill="#FFA590" d="M949.667 48.902c6.131 0 11.1-4.962 11.1-11.083s-4.969-11.083-11.1-11.083-11.1 4.962-11.1 11.083 4.969 11.083 11.1 11.083M949.633 147.956a21.35 21.35 0 0 0 11.864-3.582 21.3 21.3 0 0 0 7.864-9.565 21.271 21.271 0 0 0-4.649-23.222c-2.051-2.048-4.596-3.383-7.271-4.747L788.049 18.065a15 15 0 0 0-7.707-2.13H678.286c-4 0-7.837 1.587-10.665 4.411a15.05 15.05 0 0 0-4.418 10.649v101.897a15.04 15.04 0 0 0 4.416 10.652 15.09 15.09 0 0 0 10.667 4.412z"/><path fill="#FFE2D4" d="M949.667 147.952c11.795 0 21.357-9.548 21.357-21.324s-9.562-21.324-21.357-21.324-21.357 9.547-21.357 21.324c0 11.776 9.562 21.324 21.357 21.324"/><path fill="#fff" d="M439.158 167.269q-5.371 0-8.31-2.245-2.892-2.291-2.846-5.956h6.611q.046 1.97 1.377 2.84 1.332.825 3.351.825 2.067 0 3.122-.733 1.056-.733 1.056-1.924 0-1.1-.551-1.65-.55-.596-1.652-.87-1.103-.32-2.847-.55a42 42 0 0 1-3.856-.687q-1.745-.459-3.122-1.237a6.2 6.2 0 0 1-2.112-2.154q-.735-1.329-.734-3.345 0-2.611 1.331-4.307 1.377-1.74 3.765-2.611 2.433-.871 5.646-.871 3.168 0 5.464.917 2.34.916 3.626 2.657 1.285 1.695 1.332 4.17h-6.611q0-1.054-.505-1.742-.505-.733-1.423-1.099-.873-.367-2.066-.367-1.882 0-2.847.733-.964.688-.964 1.833 0 .917.551 1.466.551.55 1.699.871 1.147.274 2.938.504 1.882.229 3.627.641 1.79.413 3.168 1.237a5.54 5.54 0 0 1 2.157 2.2q.781 1.375.781 3.619 0 4.078-2.984 5.957-2.938 1.878-8.172 1.878M408.591 167.223q-2.204 0-4.04-.779-1.79-.778-3.122-2.382-1.285-1.604-1.974-3.986t-.689-5.544q0-4.262 1.194-7.056 1.24-2.84 3.443-4.261 2.25-1.42 5.188-1.421 1.928 0 3.443.596 1.561.596 2.663 1.649a6.54 6.54 0 0 1 1.699 2.475h.367V133.41h6.748v33.401h-6.519l-.229-4.307h-.367q-.826 2.154-2.893 3.436-2.065 1.284-4.912 1.283m2.571-5.452q1.882 0 3.076-.871a5.25 5.25 0 0 0 1.836-2.245 7.6 7.6 0 0 0 .597-2.978v-2.337q0-1.19-.321-2.29a5.3 5.3 0 0 0-1.01-1.925 4.85 4.85 0 0 0-1.745-1.374q-1.056-.504-2.433-.504-1.653 0-2.892.779-1.24.779-1.929 2.382-.688 1.604-.688 4.124 0 2.428.688 4.078.69 1.603 1.929 2.382t2.892.779M382.392 166.811v-24.559h6.106l.275 3.941h.23q.826-2.383 2.617-3.299 1.837-.962 4.177-.962h1.3780000000000001v6.323h-1.5150000000000001q-2.25 0-3.673.687-1.424.642-2.112 1.924-.689 1.284-.734 3.116v12.829zM365.79 167.223q-2.801 0-5.05-.824a11.2 11.2 0 0 1-3.903-2.52q-1.652-1.65-2.525-3.987-.872-2.382-.872-5.36 0-3.804 1.469-6.644 1.47-2.886 4.224-4.49t6.657-1.604q2.754 0 5.004.871 2.25.87 3.856 2.52 1.653 1.649 2.525 3.986.918 2.337.918 5.361 0 3.756-1.469 6.643a10.76 10.76 0 0 1-4.223 4.445q-2.71 1.603-6.611 1.603m-.046-5.452q1.653 0 2.892-.779 1.286-.825 1.928-2.428.689-1.603.689-4.032 0-1.833-.367-3.162-.367-1.374-1.102-2.291a4.3 4.3 0 0 0-1.745-1.328q-1.01-.459-2.249-.459-1.653 0-2.938.779-1.24.78-1.929 2.383-.688 1.603-.688 4.078 0 1.833.367 3.207.413 1.329 1.148 2.245a4.9 4.9 0 0 0 1.744 1.329q1.01.458 2.25.458M321.853 166.811l-5.876-24.559h6.978l3.81 17.824h.276l3.489-17.824h7.345l3.489 17.915h.184l3.856-17.915h6.703l-5.922 24.559h-8.815l-3.351-15.991h-.23l-3.259 15.991zM279.769 166.811v-24.559h6.473l.276 4.445h.275q1.01-2.474 3.122-3.666 2.112-1.236 4.729-1.237 1.836 0 3.397.596a6.84 6.84 0 0 1 2.754 1.741q1.194 1.191 1.837 3.161.688 1.924.688 4.674v14.845h-6.748v-13.379q0-2.061-.505-3.436-.46-1.376-1.469-2.016-1.01-.687-2.663-.688-1.744 0-2.938.825a5.47 5.47 0 0 0-1.837 2.154 6.54 6.54 0 0 0-.642 2.886v13.654zM259.749 167.223q-3.627 0-5.876-1.878-2.204-1.924-2.204-5.086 0-2.016.735-3.482.78-1.512 2.111-2.429 1.332-.961 3.122-1.42 1.838-.458 3.948-.458h5.739v-1.787q0-1.146-.459-1.924-.413-.825-1.331-1.283-.918-.459-2.388-.458-1.422 0-2.433.412-.964.413-1.469 1.145-.459.733-.459 1.696h-6.244q0-3.85 2.893-6.14 2.937-2.337 8.171-2.337 2.48 0 4.408.55t3.259 1.695q1.377 1.1 2.066 2.841.735 1.741.735 4.078v10.126q0 .779.229 1.099.276.321.827.321.275 0 .596-.092.322-.091.597-.274v4.077q-.689.55-1.79.779a10 10 0 0 1-2.02.229q-1.194 0-2.112-.275-.918-.274-1.515-.778a3.8 3.8 0 0 1-.918-1.283q-.276-.78-.276-1.787v-1.146l.827 1.008h-1.102q-.643 1.925-2.755 3.116-2.112 1.146-4.912 1.145m2.663-4.994q2.25 0 3.581-1.099 1.377-1.1 1.377-3.07v-1.833h-4.499q-1.469 0-2.479.367-.965.32-1.469 1.008t-.505 1.695q0 1.42 1.01 2.199 1.055.733 2.984.733M224.042 166.811V133.41h6.748v13.287h.276q1.01-2.474 3.121-3.666 2.112-1.236 4.729-1.237 1.837 0 3.397.596a6.8 6.8 0 0 1 2.755 1.741q1.194 1.191 1.836 3.161.689 1.924.689 4.674v14.845h-6.749v-13.379q0-2.061-.505-3.436-.46-1.376-1.469-2.016-1.01-.687-2.663-.688-1.744 0-2.938.825a5.46 5.46 0 0 0-1.836 2.154 6.5 6.5 0 0 0-.643 2.886v13.654zM214.503 166.811q-2.48 0-3.856-.733-1.377-.733-1.928-2.062-.505-1.374-.505-3.207v-13.15h-4.408v-5.407h4.408v-6.689l6.702-.641v7.33h4.959v5.407h-4.959v11.867q0 1.1.505 1.466.506.367 1.469.367h2.985v5.452zM178.267 166.811v-24.559h6.106l.275 3.941h.23q.826-2.383 2.617-3.299 1.836-.962 4.177-.962h1.3780000000000001v6.323h-1.5150000000000001q-2.25 0-3.673.687-1.424.642-2.112 1.924-.689 1.284-.734 3.116v12.829zM162.335 167.223q-3.857 0-6.611-1.557-2.709-1.558-4.178-4.353-1.469-2.84-1.469-6.598 0-3.986 1.469-6.873t4.178-4.444q2.709-1.604 6.381-1.604 4.27 0 7.025 1.879 2.754 1.878 3.948 5.086 1.193 3.207.78 7.285h-17.124q-.046 1.924.643 3.299.735 1.374 2.02 2.107 1.285.688 2.938.688 1.928 0 3.26-.825 1.377-.871 1.744-2.291h6.381q-.32 2.474-1.882 4.307-1.515 1.833-3.948 2.886-2.433 1.008-5.555 1.008m-5.601-14.753-.597-.733h11.707l-.597.733q.092-1.925-.597-3.116-.642-1.236-1.836-1.832-1.194-.642-2.709-.642-1.652 0-2.846.687t-1.882 1.971q-.643 1.236-.643 2.932M130.85 167.223q-2.204 0-4.04-.779-1.79-.778-3.122-2.382-1.285-1.604-1.974-3.986t-.689-5.544q0-4.262 1.194-7.056 1.24-2.84 3.443-4.261 2.25-1.42 5.188-1.421 1.928 0 3.443.596 1.561.596 2.663 1.649a6.54 6.54 0 0 1 1.699 2.475h.367V133.41h6.748v33.401h-6.519l-.229-4.307h-.367q-.826 2.154-2.893 3.436-2.065 1.284-4.912 1.283m2.571-5.452q1.882 0 3.076-.871a5.25 5.25 0 0 0 1.836-2.245 7.6 7.6 0 0 0 .597-2.978v-2.337q0-1.19-.321-2.29a5.3 5.3 0 0 0-1.01-1.925 4.85 4.85 0 0 0-1.745-1.374q-1.056-.504-2.433-.504-1.653 0-2.892.779-1.24.779-1.929 2.382-.688 1.604-.688 4.124 0 2.428.688 4.078.69 1.603 1.929 2.382t2.892.779M102.475 167.223q-2.847 0-4.82-1.099-1.975-1.1-2.985-3.253-.964-2.2-.964-5.315v-15.304h6.749v13.517q0 1.924.459 3.253.506 1.329 1.515 2.062 1.056.687 2.709.687 1.698 0 2.892-.825a5.45 5.45 0 0 0 1.836-2.153 6.9 6.9 0 0 0 .643-2.978v-13.563h6.749v24.559h-6.474l-.275-4.49h-.321q-.873 2.382-2.984 3.665-2.067 1.237-4.729 1.237M77.334 167.223q-2.8 0-5.05-.824a11.2 11.2 0 0 1-3.903-2.52q-1.653-1.65-2.525-3.987-.872-2.382-.872-5.36 0-3.804 1.47-6.644 1.468-2.886 4.223-4.49t6.657-1.604q2.754 0 5.004.871 2.25.87 3.856 2.52 1.653 1.649 2.525 3.986.918 2.337.918 5.361 0 3.756-1.469 6.643a10.76 10.76 0 0 1-4.224 4.445q-2.708 1.603-6.61 1.603m-.046-5.452q1.653 0 2.892-.779 1.286-.825 1.928-2.428.69-1.603.689-4.032 0-1.833-.367-3.162-.368-1.374-1.102-2.291a4.3 4.3 0 0 0-1.745-1.328q-1.01-.459-2.25-.459-1.651 0-2.938.779-1.24.78-1.928 2.383t-.688 4.078q0 1.833.367 3.207.413 1.329 1.148 2.245a4.9 4.9 0 0 0 1.744 1.329q1.01.458 2.25.458M53.9 166.811V133.41h6.749v33.401zM377.819 115.804V82.402h6.84v19.015l2.02-2.337 7.3-7.835h8.31l-9.458 9.714 9.641 14.845h-7.942l-5.004-7.789-1.469-2.566-3.398 3.345v7.01zM357.799 116.216q-3.627 0-5.876-1.878-2.204-1.925-2.204-5.086 0-2.016.735-3.482.78-1.512 2.111-2.429 1.332-.962 3.122-1.42 1.837-.459 3.948-.458h5.739v-1.787q0-1.145-.459-1.925-.413-.825-1.331-1.282-.919-.459-2.388-.459-1.423 0-2.433.413-.964.412-1.469 1.145-.459.734-.459 1.695h-6.244q0-3.848 2.893-6.14 2.937-2.336 8.171-2.336 2.48 0 4.408.55 1.928.549 3.259 1.695 1.377 1.1 2.066 2.84.735 1.742.735 4.079v10.125q0 .78.229 1.1.276.321.827.321.275 0 .596-.092.322-.092.597-.275v4.078q-.689.55-1.79.779a10 10 0 0 1-2.02.229q-1.194 0-2.112-.275t-1.515-.779a3.8 3.8 0 0 1-.918-1.283q-.276-.779-.276-1.787v-1.145l.827 1.008h-1.102q-.643 1.924-2.755 3.116-2.112 1.145-4.912 1.145m2.663-4.994q2.249 0 3.581-1.1 1.377-1.1 1.377-3.07v-1.832h-4.499q-1.47 0-2.479.366-.965.321-1.469 1.008t-.505 1.696q0 1.42 1.01 2.199 1.055.733 2.984.733M335.256 116.216q-3.856 0-6.611-1.558-2.708-1.557-4.177-4.352-1.47-2.841-1.469-6.598 0-3.987 1.469-6.873t4.177-4.444q2.709-1.604 6.382-1.604 4.269 0 7.024 1.879 2.754 1.878 3.948 5.085 1.194 3.208.78 7.285h-17.124q-.045 1.925.643 3.299.735 1.375 2.02 2.108 1.285.687 2.938.687 1.929 0 3.26-.824 1.377-.871 1.744-2.291h6.382q-.322 2.474-1.883 4.307-1.515 1.832-3.948 2.886-2.433 1.008-5.555 1.008m-5.601-14.753-.596-.733h11.706l-.596.733q.091-1.925-.597-3.116-.643-1.237-1.837-1.833-1.193-.64-2.708-.641-1.653 0-2.847.687t-1.882 1.97q-.642 1.237-.643 2.933M294.967 123.455v-32.21h6.52l.229 4.261h.367q.873-2.108 2.893-3.39 2.065-1.329 4.912-1.329 2.203 0 3.994.825a7.9 7.9 0 0 1 3.122 2.382q1.331 1.604 2.02 3.987.734 2.382.734 5.543 0 4.216-1.239 7.056-1.24 2.841-3.489 4.262-2.203 1.42-5.142 1.42-1.883 0-3.443-.596t-2.663-1.649a7.3 7.3 0 0 1-1.699-2.474h-.367v11.912zm12.396-12.645q1.653 0 2.892-.779 1.24-.825 1.882-2.429.69-1.603.689-4.078 0-2.52-.689-4.123-.642-1.604-1.882-2.383t-2.892-.779q-1.883 0-3.122.87a5.26 5.26 0 0 0-1.836 2.246 7.4 7.4 0 0 0-.597 2.978v2.383q0 1.191.321 2.291a5.8 5.8 0 0 0 1.01 1.924 5.6 5.6 0 0 0 1.745 1.375q1.056.504 2.479.504M279.283 116.262q-5.371 0-8.31-2.245-2.891-2.29-2.846-5.957h6.611q.046 1.971 1.377 2.841 1.332.825 3.352.825 2.066 0 3.121-.733t1.056-1.925q0-1.099-.551-1.649-.55-.595-1.652-.871-1.103-.32-2.847-.549a42 42 0 0 1-3.856-.688q-1.745-.457-3.122-1.237a6.2 6.2 0 0 1-2.112-2.153q-.734-1.328-.734-3.345 0-2.612 1.331-4.307 1.377-1.74 3.765-2.611 2.433-.87 5.647-.871 3.166 0 5.463.916 2.341.917 3.627 2.658 1.285 1.695 1.331 4.17h-6.611q0-1.055-.505-1.742-.505-.733-1.423-1.1-.872-.366-2.066-.366-1.883 0-2.846.733-.965.688-.965 1.833 0 .916.551 1.466.552.55 1.699.871 1.148.275 2.938.504 1.882.228 3.627.641 1.791.412 3.168 1.237a5.53 5.53 0 0 1 2.157 2.199q.781 1.375.781 3.62 0 4.078-2.984 5.956-2.938 1.88-8.172 1.879"/><path fill="#FFCE5C" d="M243.955 116.262q-5.371 0-8.31-2.245-2.892-2.29-2.846-5.957h6.611q.045 1.971 1.377 2.841 1.331.825 3.351.825 2.066 0 3.122-.733t1.056-1.925q0-1.099-.551-1.649-.55-.595-1.653-.871-1.101-.32-2.846-.549a42 42 0 0 1-3.856-.688q-1.745-.457-3.122-1.237a6.2 6.2 0 0 1-2.112-2.153q-.735-1.328-.735-3.345 0-2.612 1.332-4.307 1.377-1.74 3.764-2.611 2.434-.87 5.647-.871 3.168 0 5.463.916 2.341.917 3.627 2.658 1.286 1.695 1.331 4.17h-6.61q0-1.055-.505-1.742-.506-.733-1.424-1.1-.872-.366-2.066-.366-1.881 0-2.846.733-.964.688-.964 1.833 0 .916.551 1.466.55.55 1.699.871 1.147.275 2.938.504 1.882.228 3.627.641 1.79.412 3.167 1.237a5.53 5.53 0 0 1 2.158 2.199q.78 1.375.78 3.62 0 4.078-2.984 5.956-2.937 1.88-8.171 1.879M204.987 115.804V91.245h6.474l.275 4.445h.276q1.01-2.475 3.121-3.666 2.112-1.237 4.729-1.237 1.836 0 3.397.596a6.84 6.84 0 0 1 2.755 1.74q1.194 1.192 1.836 3.162.689 1.924.689 4.674v14.845h-6.749v-13.379q0-2.062-.505-3.436-.46-1.375-1.469-2.017-1.01-.687-2.663-.687-1.744 0-2.938.825a5.45 5.45 0 0 0-1.836 2.153 6.5 6.5 0 0 0-.643 2.887v13.654zM188.385 116.216q-2.8 0-5.05-.825-2.249-.87-3.902-2.52t-2.525-3.986q-.873-2.382-.872-5.361 0-3.803 1.469-6.643 1.469-2.886 4.223-4.49 2.755-1.604 6.657-1.604 2.755 0 5.004.87 2.25.87 3.857 2.52 1.652 1.65 2.525 3.987.918 2.337.918 5.36 0 3.758-1.469 6.644a10.76 10.76 0 0 1-4.224 4.444q-2.709 1.604-6.611 1.604m-.046-5.452q1.653 0 2.893-.779 1.285-.824 1.928-2.429.688-1.603.688-4.032 0-1.832-.367-3.161-.367-1.374-1.102-2.29a4.3 4.3 0 0 0-1.744-1.33q-1.01-.458-2.25-.458-1.653 0-2.938.78-1.24.778-1.928 2.382-.689 1.603-.689 4.077 0 1.833.367 3.208.414 1.329 1.148 2.245a4.9 4.9 0 0 0 1.745 1.329q1.01.458 2.249.458M164.951 115.804V91.245h6.749v24.559zm0-27.72v-5.682h6.749v5.682zM155.413 115.804q-2.48 0-3.856-.733-1.377-.733-1.928-2.062-.505-1.376-.505-3.207v-13.15h-4.408v-5.407h4.408v-6.69l6.702-.64v7.33h4.958v5.407h-4.958v11.867q0 1.099.505 1.466.506.366 1.469.366h2.984v5.453zM131.713 116.216q-2.754 0-5.004-.87a11.4 11.4 0 0 1-3.902-2.612q-1.608-1.695-2.48-4.032-.825-2.337-.826-5.178 0-3.894 1.515-6.735a10.7 10.7 0 0 1 4.316-4.398q2.8-1.604 6.61-1.604 3.168 0 5.601 1.191 2.48 1.191 3.949 3.3 1.469 2.106 1.606 4.902h-6.611q-.183-1.283-.872-2.154a3.8 3.8 0 0 0-1.653-1.283q-.964-.458-2.203-.458-1.745 0-2.984.917-1.24.87-1.837 2.52-.596 1.603-.596 3.802 0 2.428.642 4.032.689 1.558 1.883 2.383 1.24.779 2.846.779 1.469 0 2.479-.504 1.056-.504 1.653-1.42a4.1 4.1 0 0 0 .734-2.062h6.565q-.138 2.886-1.652 5.04-1.47 2.107-3.995 3.299-2.524 1.145-5.784 1.145M101.085 116.216q-3.627 0-5.877-1.878-2.203-1.925-2.203-5.086 0-2.016.734-3.482.78-1.512 2.112-2.429 1.332-.962 3.122-1.42 1.836-.459 3.948-.458h5.739v-1.787q0-1.145-.459-1.925-.414-.825-1.332-1.282-.918-.459-2.387-.459-1.424 0-2.433.413-.965.412-1.469 1.145-.459.734-.459 1.695h-6.244q0-3.848 2.892-6.14 2.94-2.336 8.172-2.336 2.48 0 4.407.55 1.928.549 3.26 1.695 1.377 1.1 2.066 2.84.734 1.742.734 4.079v10.125q0 .78.23 1.1.276.321.826.321.276 0 .597-.092t.597-.275v4.078q-.689.55-1.791.779a10 10 0 0 1-2.02.229q-1.193 0-2.111-.275t-1.515-.779a3.8 3.8 0 0 1-.919-1.283q-.275-.779-.275-1.787v-1.145l.826 1.008h-1.101q-.643 1.924-2.755 3.116-2.112 1.145-4.912 1.145m2.662-4.994q2.25 0 3.581-1.1 1.378-1.1 1.378-3.07v-1.832h-4.499q-1.47 0-2.48.366-.963.321-1.469 1.008-.504.688-.505 1.696 0 1.42 1.01 2.199 1.056.733 2.984.733M71.85 120.431q-4.498 0-8.08-1.374-3.534-1.375-6.06-3.895-2.478-2.52-3.81-6.048-1.286-3.528-1.286-7.835 0-4.26 1.378-7.789 1.423-3.573 3.948-6.14 2.571-2.565 6.06-3.94 3.535-1.42 7.758-1.42 3.994 0 7.3 1.237 3.306 1.191 5.739 3.482a15.2 15.2 0 0 1 3.81 5.36q1.332 3.117 1.332 6.965 0 3.666-1.148 6.369t-3.122 4.215q-1.974 1.466-4.453 1.466-1.423 0-2.571-.458a5 5 0 0 1-1.837-1.283 5.35 5.35 0 0 1-1.055-1.97h-.368a5.34 5.34 0 0 1-1.974 2.52q-1.377.963-3.351.962-2.112 0-3.719-1.008-1.56-1.053-2.433-2.978-.872-1.97-.872-4.673 0-3.162.964-5.361 1.01-2.245 2.754-3.39 1.79-1.192 4.132-1.192 1.607 0 2.847.825 1.285.825 1.836 2.153h.275l.551-2.52h3.03l-.734 9.439q-.138 1.741.138 2.795.275 1.053.872 1.512.596.458 1.469.458 1.331 0 2.25-.916.963-.963 1.468-2.658t.505-3.986q0-4.306-1.79-7.24a11 11 0 0 0-4.82-4.398q-3.03-1.512-6.887-1.512-3.535 0-6.243 1.146-2.709 1.1-4.545 3.161-1.79 2.016-2.755 4.72-.918 2.656-.918 5.818 0 3.666 1.01 6.506 1.056 2.796 2.984 4.72t4.637 2.932q2.754 1.008 6.106 1.008 3.03 0 5.417-.779t4.04-2.107l1.745 3.482q-1.148 1.008-2.985 1.832-1.835.825-4.04 1.283a20 20 0 0 1-4.499.504m-1.01-13.562q1.24 0 2.066-.687.873-.687 1.332-1.924.504-1.238.596-2.933-.09-1.742-.55-2.886-.414-1.147-1.194-1.696-.735-.55-1.79-.55-1.287 0-2.158.78-.826.732-1.24 2.016-.413 1.282-.413 2.978 0 1.603.413 2.703.413 1.053 1.148 1.649.78.55 1.79.55"/></svg>